<svg width="161" height="74" viewBox="0 0 161 74" fill="none" xmlns="http://www.w3.org/2000/svg">
<path d="M142.165 40.8V22.4H160.5V40.8H142.165ZM142.165 74V55.6H160.5V74H142.165Z" fill="#00DAFF"/>
<path d="M66.1972 74L58.8057 18H73.7806L76.5645 46.2L77.2364 57.5L78.1963 46.2L81.8441 18H96.1471L100.179 45.7L101.235 57.6L102.003 45.7L104.595 18H118.898L111.794 74H93.9393L89.6196 46.6L88.8516 32.9L87.9877 46.6L83.8599 74H66.1972Z" fill="#00DAFF"/>
<path d="M30.5459 74C26.7062 74 23.3144 73.2 20.3706 71.6C17.4268 70 15.123 67.6333 13.4591 64.5C11.8592 61.3667 11.0593 57.6 11.0593 53.2V7.79999L28.914 0V52.3C28.914 54.2333 29.202 55.7 29.778 56.7C30.3539 57.6333 31.3139 58.2667 32.6578 58.6C34.0017 58.9333 35.7296 59.1 37.8414 59.1H50.8965V74H30.5459ZM0.5 32.9V18H42.1611V32.9H0.5Z" fill="#00DAFF"/>
</svg>
